<svg id="svg_" xmlns="http://www.w3.org/2000/svg" width="226.953" height="48.391" viewBox="0 0 226.953 48.391">
  <path id="Path_38" data-name="Path 38" d="M61.325,5.734V34.769H56.275V12.01H56.2L47.192,34.769H43.851L34.617,12.01h-.059V34.769H29.9V5.734h7.229l8.34,21.524h.12L54.4,5.734Zm4.208,2.207a2.668,2.668,0,0,1,.882-2.035,2.969,2.969,0,0,1,2.1-.821,2.929,2.929,0,0,1,2.146.842,2.735,2.735,0,0,1,.852,2.013,2.628,2.628,0,0,1-.871,2.005,3,3,0,0,1-2.127.81A2.946,2.946,0,0,1,66.4,9.942a2.657,2.657,0,0,1-.863-2m5.407,26.823h-4.9V13.954h4.9ZM85.81,31.2a6.785,6.785,0,0,0,2.409-.5,10.116,10.116,0,0,0,2.43-1.338v4.566a9.8,9.8,0,0,1-2.664,1.012,14.518,14.518,0,0,1-3.27.343A9.9,9.9,0,0,1,74.369,24.958a11.875,11.875,0,0,1,2.946-8.273,10.633,10.633,0,0,1,8.321-3.251,11.4,11.4,0,0,1,2.786.356,9.258,9.258,0,0,1,2.236.821v4.7a9.952,9.952,0,0,0-2.314-1.286,6.705,6.705,0,0,0-2.42-.457,6.139,6.139,0,0,0-4.677,1.894,7.082,7.082,0,0,0-1.782,5.081,6.768,6.768,0,0,0,1.711,4.921,6.181,6.181,0,0,0,4.648,1.761m18.79-17.6a6.084,6.084,0,0,1,1.052.082,4.26,4.26,0,0,1,.791.21v4.959a4.365,4.365,0,0,0-1.126-.537,5.573,5.573,0,0,0-1.79-.252,3.81,3.81,0,0,0-3.049,1.519,7.3,7.3,0,0,0-1.246,4.677V34.769H94.334V13.954h4.9v3.28h.082a5.746,5.746,0,0,1,2.024-2.664,5.5,5.5,0,0,1,3.261-.962m2.1,11.054a11.267,11.267,0,0,1,2.918-8.178,10.73,10.73,0,0,1,8.1-3.017,9.975,9.975,0,0,1,7.623,2.906,10.957,10.957,0,0,1,2.735,7.846,11.065,11.065,0,0,1-2.914,8.058,10.562,10.562,0,0,1-7.938,3,10.375,10.375,0,0,1-7.684-2.845,10.486,10.486,0,0,1-2.838-7.759m5.1-.16a7.427,7.427,0,0,0,1.473,4.98,5.26,5.26,0,0,0,4.231,1.721,4.932,4.932,0,0,0,4.069-1.721,7.953,7.953,0,0,0,1.4-5.1,7.677,7.677,0,0,0-1.448-5.073,5.028,5.028,0,0,0-4.059-1.711,5.136,5.136,0,0,0-4.183,1.793A7.8,7.8,0,0,0,111.8,24.51m23.564-5.083a2.1,2.1,0,0,0,.667,1.652,11.427,11.427,0,0,0,2.956,1.506,10.032,10.032,0,0,1,4.122,2.643,5.487,5.487,0,0,1,1.185,3.554,5.719,5.719,0,0,1-2.258,4.719,9.6,9.6,0,0,1-6.1,1.78,14.648,14.648,0,0,1-2.866-.313,12.7,12.7,0,0,1-2.662-.8V29.349a12.077,12.077,0,0,0,2.876,1.473,8.435,8.435,0,0,0,2.794.547,4.986,4.986,0,0,0,2.449-.465,1.666,1.666,0,0,0,.789-1.559,2.161,2.161,0,0,0-.818-1.711,12.144,12.144,0,0,0-3.11-1.612,9.594,9.594,0,0,1-3.846-2.55,5.59,5.59,0,0,1-1.134-3.6,5.693,5.693,0,0,1,2.236-4.629,8.931,8.931,0,0,1,5.815-1.814,14.031,14.031,0,0,1,2.449.244,10.8,10.8,0,0,1,2.268.631v4.658a10.4,10.4,0,0,0-2.268-1.115,7.6,7.6,0,0,0-2.571-.465,3.737,3.737,0,0,0-2.178.547,1.73,1.73,0,0,0-.778,1.5m11.027,5.245a11.267,11.267,0,0,1,2.916-8.184,10.73,10.73,0,0,1,8.1-3.017,9.975,9.975,0,0,1,7.623,2.906,10.957,10.957,0,0,1,2.735,7.846,11.065,11.065,0,0,1-2.914,8.058,10.562,10.562,0,0,1-7.938,3,10.375,10.375,0,0,1-7.684-2.845,10.486,10.486,0,0,1-2.838-7.759m5.1-.16a7.437,7.437,0,0,0,1.473,4.98,5.273,5.273,0,0,0,4.233,1.721,4.932,4.932,0,0,0,4.069-1.721,7.953,7.953,0,0,0,1.4-5.1,7.677,7.677,0,0,0-1.448-5.073,5.031,5.031,0,0,0-4.061-1.711A5.134,5.134,0,0,0,153,19.4a7.8,7.8,0,0,0-1.488,5.113m32.536-6.541h-7.292v16.8h-4.963V17.962h-3.482V13.954h3.482v-2.9a7.206,7.206,0,0,1,2.138-5.376,7.49,7.49,0,0,1,5.47-2.1,12.516,12.516,0,0,1,1.58.09,6.364,6.364,0,0,1,1.214.274V8.183a5.009,5.009,0,0,0-.842-.345,4.431,4.431,0,0,0-1.4-.21,2.956,2.956,0,0,0-2.369.962,4.24,4.24,0,0,0-.831,2.853v2.512h7.3V9.275l4.919-1.5v6.177h4.961v4.008h-4.961V27.7a4.111,4.111,0,0,0,.7,2.714,2.8,2.8,0,0,0,2.2.789,3.3,3.3,0,0,0,1.023-.21,4.778,4.778,0,0,0,1.052-.486v4.05a5.818,5.818,0,0,1-1.549.486,10.67,10.67,0,0,1-2.135.221,6.078,6.078,0,0,1-4.648-1.65,7.03,7.03,0,0,1-1.548-4.972Z" transform="translate(33.008 3.944)" fill="#153a47"/>
  <path id="Path_39" data-name="Path 39" d="M0,0H23V23H0Z" fill="#153a47"/>
  <path id="Path_40" data-name="Path 40" d="M12.069,0h23V23h-23Z" transform="translate(13.324)" fill="#153a47"/>
  <path id="Path_41" data-name="Path 41" d="M0,12.069H23v23H0Z" transform="translate(0 13.324)" fill="#153a47"/>
  <path id="Path_42" data-name="Path 42" d="M12.069,12.069h23v23h-23Z" transform="translate(13.324 13.324)" fill="#153a47"/>
</svg>
